<mxfile host="app.diagrams.net" modified="2024-02-22T23:06:56.454Z" agent="Mozilla/5.0 (Windows NT 10.0; Win64; x64) AppleWebKit/537.36 (KHTML, like Gecko) Chrome/121.0.0.0 Safari/537.36" etag="PZ8jX5qlgD5YuewE8Pyt" version="23.1.5" type="google">
  <diagram name="Página-1" id="rN-FK_oAsdL6z-CzMM1s">
    <mxGraphModel grid="1" page="1" gridSize="10" guides="1" tooltips="1" connect="1" arrows="1" fold="1" pageScale="1" pageWidth="827" pageHeight="1169" math="0" shadow="0">
      <root>
        <mxCell id="0" />
        <mxCell id="1" parent="0" />
        <mxCell id="qZ51HbweYTCzTLE5L4EJ-1" value="EQUIPE" style="rounded=0;whiteSpace=wrap;html=1;" vertex="1" parent="1">
          <mxGeometry x="440" y="260" width="120" height="60" as="geometry" />
        </mxCell>
        <mxCell id="qZ51HbweYTCzTLE5L4EJ-2" value="PAÍS" style="rounded=0;whiteSpace=wrap;html=1;" vertex="1" parent="1">
          <mxGeometry x="600" y="260" width="120" height="60" as="geometry" />
        </mxCell>
        <mxCell id="qZ51HbweYTCzTLE5L4EJ-3" value="PARTIDA" style="rounded=0;whiteSpace=wrap;html=1;" vertex="1" parent="1">
          <mxGeometry x="280" y="260" width="120" height="60" as="geometry" />
        </mxCell>
        <mxCell id="qZ51HbweYTCzTLE5L4EJ-4" value="JOGADOR" style="rounded=0;whiteSpace=wrap;html=1;" vertex="1" parent="1">
          <mxGeometry x="120" y="260" width="120" height="60" as="geometry" />
        </mxCell>
        <mxCell id="qZ51HbweYTCzTLE5L4EJ-5" value="" style="ellipse;whiteSpace=wrap;html=1;" vertex="1" parent="1">
          <mxGeometry x="120" y="360" width="120" height="80" as="geometry" />
        </mxCell>
        <mxCell id="qZ51HbweYTCzTLE5L4EJ-6" value="" style="ellipse;whiteSpace=wrap;html=1;" vertex="1" parent="1">
          <mxGeometry x="280" y="360" width="120" height="80" as="geometry" />
        </mxCell>
        <mxCell id="qZ51HbweYTCzTLE5L4EJ-7" value="NOME" style="ellipse;whiteSpace=wrap;html=1;" vertex="1" parent="1">
          <mxGeometry x="440" y="360" width="120" height="80" as="geometry" />
        </mxCell>
        <mxCell id="qZ51HbweYTCzTLE5L4EJ-8" value="CONDIÇÃO" style="ellipse;whiteSpace=wrap;html=1;" vertex="1" parent="1">
          <mxGeometry x="600" y="360" width="120" height="80" as="geometry" />
        </mxCell>
        <mxCell id="qZ51HbweYTCzTLE5L4EJ-9" value="NOME DO TÉCNICO" style="ellipse;whiteSpace=wrap;html=1;" vertex="1" parent="1">
          <mxGeometry x="440" y="440" width="120" height="80" as="geometry" />
        </mxCell>
        <mxCell id="qZ51HbweYTCzTLE5L4EJ-11" value="CONTINENTE" style="ellipse;whiteSpace=wrap;html=1;" vertex="1" parent="1">
          <mxGeometry x="600" y="440" width="120" height="80" as="geometry" />
        </mxCell>
        <mxCell id="qZ51HbweYTCzTLE5L4EJ-12" value="NOME" style="ellipse;whiteSpace=wrap;html=1;" vertex="1" parent="1">
          <mxGeometry x="600" y="520" width="120" height="80" as="geometry" />
        </mxCell>
      </root>
    </mxGraphModel>
  </diagram>
</mxfile>
